<?xml version="1.0" encoding="UTF-8"?>
<svg xmlns="http://www.w3.org/2000/svg" xmlns:xlink="http://www.w3.org/1999/xlink" width="30pt" height="30pt" viewBox="0 0 30 30" version="1.1">
<g id="surface1">
<path style=" stroke:none;fill-rule:nonzero;fill:rgb(0%,0%,0%);fill-opacity:1;" d="M 27.585938 15.054688 L 26.6875 13.011719 C 26.636719 12.890625 26.578125 12.769531 26.511719 12.652344 C 26.136719 11.96875 25.523438 11.453125 24.78125 11.199219 C 24.042969 10.949219 23.238281 10.984375 22.523438 11.296875 L 22.175781 11.445312 L 21.734375 10.4375 L 21.40625 9.695312 C 21.128906 9.0625 20.621094 8.578125 19.972656 8.328125 C 19.332031 8.082031 18.628906 8.097656 18.003906 8.378906 L 16.851562 8.875 C 16.640625 8.574219 16.382812 8.34375 16.082031 8.1875 C 15.453125 7.863281 14.695312 7.890625 13.832031 8.269531 L 13.011719 8.628906 L 11.945312 6.210938 C 11.511719 5.222656 10.710938 4.546875 9.742188 4.355469 C 8.828125 4.171875 7.902344 4.429688 7.257812 5.042969 C 6.296875 5.964844 6.019531 7.34375 6.554688 8.5625 L 10.585938 17.792969 C 10.246094 17.722656 9.890625 17.691406 9.53125 17.699219 C 8.59375 17.722656 7.75 18.023438 7.183594 18.523438 C 7.148438 18.546875 7.113281 18.578125 7.082031 18.609375 C 6.515625 19.195312 6.234375 19.902344 6.273438 20.652344 C 6.320312 21.59375 6.859375 22.523438 7.828125 23.335938 C 7.832031 23.339844 7.835938 23.34375 7.839844 23.347656 L 16.128906 29.871094 C 16.238281 29.957031 16.367188 30 16.5 30 C 16.582031 30 16.664062 29.984375 16.738281 29.949219 L 28.613281 24.730469 C 28.816406 24.640625 28.953125 24.445312 28.96875 24.21875 L 29.03125 23.1875 C 29.207031 20.410156 28.707031 17.597656 27.585938 15.054688 Z M 27.839844 23.109375 L 27.796875 23.78125 L 16.585938 28.710938 L 8.589844 22.417969 C 7.894531 21.832031 7.496094 21.183594 7.464844 20.59375 C 7.445312 20.210938 7.578125 19.855469 7.855469 19.53125 C 7.875 19.515625 7.894531 19.5 7.914062 19.480469 C 8.628906 18.742188 10.414062 18.691406 11.34375 19.375 L 13.402344 21.351562 C 13.519531 21.464844 13.667969 21.519531 13.816406 21.519531 C 13.972656 21.519531 14.132812 21.457031 14.25 21.335938 C 14.476562 21.097656 14.46875 20.71875 14.230469 20.492188 L 12.230469 18.566406 L 7.648438 8.082031 C 7.246094 7.167969 7.609375 6.359375 8.085938 5.90625 C 8.441406 5.566406 8.984375 5.421875 9.507812 5.527344 C 10.097656 5.644531 10.574219 6.058594 10.851562 6.691406 L 14.320312 14.582031 C 14.421875 14.808594 14.640625 14.941406 14.871094 14.941406 C 14.949219 14.941406 15.03125 14.925781 15.109375 14.890625 C 15.410156 14.757812 15.550781 14.402344 15.417969 14.101562 L 13.492188 9.722656 L 14.3125 9.363281 C 14.832031 9.136719 15.242188 9.097656 15.53125 9.25 C 15.738281 9.355469 15.914062 9.566406 16.050781 9.878906 L 18.097656 14.535156 C 18.195312 14.757812 18.414062 14.890625 18.644531 14.890625 C 18.722656 14.890625 18.804688 14.875 18.882812 14.839844 C 19.1875 14.707031 19.324219 14.355469 19.191406 14.050781 L 17.386719 9.949219 L 18.480469 9.472656 C 18.484375 9.472656 18.484375 9.472656 18.488281 9.46875 C 18.824219 9.320312 19.199219 9.308594 19.542969 9.441406 C 19.890625 9.578125 20.164062 9.835938 20.3125 10.179688 L 22.746094 15.710938 C 22.84375 15.933594 23.0625 16.066406 23.292969 16.066406 C 23.375 16.066406 23.457031 16.050781 23.535156 16.015625 C 23.835938 15.882812 23.972656 15.53125 23.839844 15.230469 L 22.65625 12.539062 L 23 12.390625 C 23.925781 11.988281 24.984375 12.347656 25.464844 13.226562 C 25.511719 13.3125 25.554688 13.402344 25.59375 13.492188 L 26.492188 15.535156 C 27.535156 17.90625 28 20.527344 27.839844 23.109375 Z M 27.839844 23.109375 "/>
<path style=" stroke:none;fill-rule:nonzero;fill:rgb(0%,0%,0%);fill-opacity:1;" d="M 25.492188 22.953125 L 24.902344 23.210938 C 24.601562 23.34375 24.460938 23.695312 24.59375 24 C 24.691406 24.222656 24.914062 24.355469 25.140625 24.355469 C 25.222656 24.355469 25.304688 24.339844 25.382812 24.304688 L 25.972656 24.046875 C 26.273438 23.914062 26.410156 23.5625 26.277344 23.261719 C 26.148438 22.957031 25.792969 22.820312 25.492188 22.953125 Z M 25.492188 22.953125 "/>
<path style=" stroke:none;fill-rule:nonzero;fill:rgb(0%,0%,0%);fill-opacity:1;" d="M 23.113281 24.007812 L 16.816406 26.769531 C 16.515625 26.902344 16.378906 27.253906 16.511719 27.558594 C 16.609375 27.78125 16.828125 27.914062 17.058594 27.914062 C 17.136719 27.914062 17.21875 27.898438 17.296875 27.863281 L 23.59375 25.105469 C 23.894531 24.972656 24.035156 24.617188 23.902344 24.316406 C 23.769531 24.015625 23.417969 23.875 23.113281 24.007812 Z M 23.113281 24.007812 "/>
</g>
</svg>
