<?xml version="1.0" encoding="UTF-8"?>
<svg xmlns="http://www.w3.org/2000/svg" xmlns:xlink="http://www.w3.org/1999/xlink" width="30pt" height="30pt" viewBox="0 0 30 30" version="1.1">
<g id="surface1">
<path style=" stroke:none;fill-rule:nonzero;fill:rgb(0%,0%,0%);fill-opacity:1;" d="M 21.65625 10.285156 L 20.285156 8.917969 C 19.882812 8.511719 19.339844 8.289062 18.765625 8.289062 C 18.191406 8.289062 17.652344 8.511719 17.246094 8.917969 L 9.636719 16.527344 C 9.605469 16.558594 9.578125 16.59375 9.554688 16.632812 C 9.550781 16.640625 9.546875 16.652344 9.539062 16.664062 C 9.523438 16.695312 9.511719 16.726562 9.5 16.757812 C 9.496094 16.765625 9.492188 16.769531 9.492188 16.777344 L 8.171875 21.664062 C 8.117188 21.859375 8.171875 22.066406 8.316406 22.207031 C 8.421875 22.3125 8.5625 22.371094 8.710938 22.371094 C 8.757812 22.371094 8.808594 22.367188 8.855469 22.351562 L 13.535156 21.089844 C 13.570312 21.097656 13.609375 21.101562 13.648438 21.101562 C 13.792969 21.101562 13.933594 21.046875 14.042969 20.9375 L 21.65625 13.324219 C 22.0625 12.917969 22.285156 12.378906 22.285156 11.804688 C 22.285156 11.230469 22.0625 10.691406 21.65625 10.285156 Z M 13.648438 19.746094 L 10.824219 16.925781 L 16.835938 10.914062 L 19.660156 13.738281 Z M 9.507812 21.015625 L 10.320312 18.003906 L 12.519531 20.203125 Z M 20.863281 12.53125 L 20.449219 12.945312 L 17.628906 10.121094 L 18.039062 9.710938 C 18.429688 9.320312 19.105469 9.320312 19.492188 9.710938 L 20.863281 11.078125 C 21.058594 11.273438 21.164062 11.53125 21.164062 11.804688 C 21.164062 12.082031 21.058594 12.339844 20.863281 12.53125 Z M 20.863281 12.53125 "/>
<path style=" stroke:none;fill-rule:nonzero;fill:rgb(0%,0%,0%);fill-opacity:1;" d="M 13.242188 16.535156 L 16.761719 13.019531 L 17.554688 13.8125 L 14.035156 17.328125 Z M 13.242188 16.535156 "/>
</g>
</svg>
